<svg xmlns="http://www.w3.org/2000/svg" viewBox="0 0 512 512" role="img" aria-label="The Forge">
  <defs>
    <radialGradient id="bg" cx="50%" cy="30%" r="72%">
      <stop offset="0" stop-color="#30363D"/>
      <stop offset="0.5" stop-color="#15191D"/>
      <stop offset="1" stop-color="#07090B"/>
    </radialGradient>
    <linearGradient id="rim" x1="86" y1="70" x2="426" y2="442" gradientUnits="userSpaceOnUse">
      <stop offset="0" stop-color="#C8CDD1"/>
      <stop offset="0.22" stop-color="#515B65"/>
      <stop offset="0.46" stop-color="#E1E3E3"/>
      <stop offset="0.74" stop-color="#3B444D"/>
      <stop offset="1" stop-color="#AEB5BB"/>
    </linearGradient>
    <linearGradient id="rimCut" x1="104" y1="104" x2="408" y2="408" gradientUnits="userSpaceOnUse">
      <stop offset="0" stop-color="#262D34"/>
      <stop offset="1" stop-color="#050607"/>
    </linearGradient>
    <linearGradient id="plate" x1="74" y1="164" x2="438" y2="356" gradientUnits="userSpaceOnUse">
      <stop offset="0" stop-color="#FFD16A"/>
      <stop offset="0.38" stop-color="#F0A334"/>
      <stop offset="0.72" stop-color="#C96C1E"/>
      <stop offset="1" stop-color="#7D310B"/>
    </linearGradient>
    <linearGradient id="plateSide" x1="82" y1="190" x2="430" y2="334" gradientUnits="userSpaceOnUse">
      <stop offset="0" stop-color="#B65C18"/>
      <stop offset="0.55" stop-color="#F2A133"/>
      <stop offset="1" stop-color="#6E2A09"/>
    </linearGradient>
    <linearGradient id="steel" x1="142" y1="220" x2="370" y2="292" gradientUnits="userSpaceOnUse">
      <stop offset="0" stop-color="#F6F1E8"/>
      <stop offset="0.2" stop-color="#89939D"/>
      <stop offset="0.5" stop-color="#FFFFFF"/>
      <stop offset="0.78" stop-color="#707A84"/>
      <stop offset="1" stop-color="#E4E8EA"/>
    </linearGradient>
    <filter id="shadow" x="-20%" y="-24%" width="140%" height="152%">
      <feDropShadow dx="0" dy="20" stdDeviation="18" flood-color="#000000" flood-opacity="0.54"/>
    </filter>
  </defs>

  <rect width="512" height="512" rx="112" fill="url(#bg)"/>
  <rect x="18" y="18" width="476" height="476" rx="96" fill="none" stroke="#FFFFFF" stroke-opacity="0.045" stroke-width="3"/>

  <path d="M174 58h164l116 116v164L338 454H174L58 338V174L174 58Z"
    fill="#0B0E11" stroke="url(#rimCut)" stroke-width="46" stroke-linejoin="round"/>
  <path d="M174 58h164l116 116v164L338 454H174L58 338V174L174 58Z"
    fill="none" stroke="url(#rim)" stroke-width="18" stroke-linejoin="round" opacity="0.78"/>
  <path d="M184 92h144l92 92v144l-92 92H184l-92-92V184l92-92Z"
    fill="none" stroke="#FFFFFF" stroke-opacity="0.055" stroke-width="5" stroke-linejoin="round"/>

  <g filter="url(#shadow)">
    <rect x="132" y="218" width="248" height="76" rx="26" fill="#080A0C"/>
    <rect x="146" y="226" width="220" height="60" rx="22" fill="url(#steel)"/>
    <rect x="166" y="238" width="180" height="9" rx="4.5" fill="#FFFFFF" fill-opacity="0.36"/>
    <rect x="168" y="268" width="176" height="8" rx="4" fill="#040506" fill-opacity="0.26"/>

    <rect x="110" y="186" width="62" height="140" rx="18" fill="url(#rim)"/>
    <rect x="340" y="186" width="62" height="140" rx="18" fill="url(#rim)"/>

    <path d="M72 182c0-16 13-29 29-29h58c16 0 29 13 29 29v148c0 16-13 29-29 29h-58c-16 0-29-13-29-29V182Z"
      fill="#090B0D"/>
    <path d="M82 174c0-16 13-29 29-29h54c16 0 29 13 29 29v164c0 16-13 29-29 29h-54c-16 0-29-13-29-29V174Z"
      fill="url(#plate)"/>
    <path d="M102 150h64c16 0 28 13 28 29v25H82v-25c0-16 13-29 20-29Z" fill="#FFD985" fill-opacity="0.42"/>
    <path d="M82 316h112v18c0 16-13 29-29 29h-54c-16 0-29-13-29-29v-18Z" fill="#78320B" fill-opacity="0.28"/>

    <path d="M324 182c0-16 13-29 29-29h58c16 0 29 13 29 29v148c0 16-13 29-29 29h-58c-16 0-29-13-29-29V182Z"
      fill="#090B0D"/>
    <path d="M318 174c0-16 13-29 29-29h54c16 0 29 13 29 29v164c0 16-13 29-29 29h-54c-16 0-29-13-29-29V174Z"
      fill="url(#plateSide)"/>
    <path d="M347 150h64c7 0 19 13 19 29v25H318v-25c0-16 13-29 29-29Z" fill="#FFD985" fill-opacity="0.34"/>
    <path d="M318 316h112v18c0 16-13 29-29 29h-54c-16 0-29-13-29-29v-18Z" fill="#652608" fill-opacity="0.3"/>
  </g>
</svg>
