<svg xmlns="http://www.w3.org/2000/svg" viewBox="0 0 512 512" role="img" aria-label="The Forge">
  <defs>
    <linearGradient id="bg" x1="64" y1="32" x2="448" y2="480" gradientUnits="userSpaceOnUse">
      <stop offset="0" stop-color="#242A31"/>
      <stop offset="0.48" stop-color="#15191D"/>
      <stop offset="1" stop-color="#0C0E10"/>
    </linearGradient>
    <linearGradient id="steel" x1="92" y1="82" x2="420" y2="430" gradientUnits="userSpaceOnUse">
      <stop offset="0" stop-color="#F4F0E8"/>
      <stop offset="0.22" stop-color="#AEB6BE"/>
      <stop offset="0.48" stop-color="#F7F2EA"/>
      <stop offset="0.74" stop-color="#737C87"/>
      <stop offset="1" stop-color="#D7DCE0"/>
    </linearGradient>
    <linearGradient id="steelDark" x1="170" y1="204" x2="342" y2="308" gradientUnits="userSpaceOnUse">
      <stop offset="0" stop-color="#ECE7DE"/>
      <stop offset="0.45" stop-color="#8F98A3"/>
      <stop offset="1" stop-color="#F3EFE8"/>
    </linearGradient>
    <linearGradient id="amber" x1="100" y1="166" x2="412" y2="346" gradientUnits="userSpaceOnUse">
      <stop offset="0" stop-color="#F4B552"/>
      <stop offset="0.45" stop-color="#E9A642"/>
      <stop offset="1" stop-color="#BE6F1F"/>
    </linearGradient>
    <filter id="softShadow" x="-20%" y="-20%" width="140%" height="140%">
      <feDropShadow dx="0" dy="12" stdDeviation="14" flood-color="#000000" flood-opacity="0.34"/>
    </filter>
  </defs>

  <rect width="512" height="512" rx="96" fill="url(#bg)"/>
  <rect x="20" y="20" width="472" height="472" rx="82" fill="none" stroke="#FFFFFF" stroke-opacity="0.04" stroke-width="2"/>

  <path d="M176 70h160l106 106v160L336 442H176L70 336V176L176 70Z"
    fill="none" stroke="url(#steel)" stroke-width="18" stroke-linejoin="round"/>
  <path d="M184 92h144l92 92v144l-92 92H184l-92-92V184l92-92Z"
    fill="none" stroke="#0B0D0F" stroke-opacity="0.42" stroke-width="6" stroke-linejoin="round"/>

  <g filter="url(#softShadow)">
    <rect x="178" y="232" width="156" height="48" rx="16" fill="url(#steelDark)"/>
    <rect x="188" y="244" width="136" height="7" rx="3.5" fill="#FFFFFF" fill-opacity="0.28"/>
    <rect x="188" y="262" width="136" height="6" rx="3" fill="#0B0D0F" fill-opacity="0.24"/>

    <rect x="146" y="196" width="34" height="120" rx="10" fill="url(#steel)"/>
    <rect x="332" y="196" width="34" height="120" rx="10" fill="url(#steel)"/>

    <path d="M104 204c0-9 7-16 16-16h28c9 0 16 7 16 16v104c0 9-7 16-16 16h-28c-9 0-16-7-16-16V204Z"
      fill="url(#amber)"/>
    <path d="M76 220c0-9 7-16 16-16h24v104H92c-9 0-16-7-16-16v-72Z"
      fill="url(#amber)"/>
    <path d="M348 204c0-9 7-16 16-16h28c9 0 16 7 16 16v104c0 9-7 16-16 16h-28c-9 0-16-7-16-16V204Z"
      fill="url(#amber)"/>
    <path d="M396 204h24c9 0 16 7 16 16v72c0 9-7 16-16 16h-24V204Z"
      fill="url(#amber)"/>

    <path d="M116 198h34c8 0 14 6 14 14v6H104v-6c0-8 6-14 12-14Z" fill="#F7C05B" fill-opacity="0.42"/>
    <path d="M362 198h34c8 0 14 6 14 14v6h-62v-6c0-8 6-14 14-14Z" fill="#F7C05B" fill-opacity="0.42"/>
  </g>
</svg>
